#!OML:ASF F:\VICON\USERDATA\INSTALL\rory3\rory3.ASF
:FULLY-SPECIFIED
:DEGREES
129
root -10.8018 18.0071 -0.452079 176.513 1.95002 173.516
lowerback 12.1049 -4.76822 -7.42092
upperback 1.82235 -6.88321 3.35102
thorax -3.51549 -3.23585 8.69387
lowerneck 7.87341 -23.8903 -16.2604
upperneck 33.0584 -33.7969 13.507
head 16.117 -14.7051 3.23522
rclavicle 9.02482e-014 -6.36111e-015
rhumerus -30.2055 -19.5089 -72.3731
rradius 27.2054
rwrist 7.30245
rhand -16.1656 7.23021
rfingers 7.12502
rthumb 10.0404 -22.5103
lclavicle 9.02482e-014 -6.36111e-015
lhumerus -27.9554 0.504524 84.2545
lradius 44.1271
lwrist -1.23994
lhand -21.4998 21.7862
lfingers 7.12502
lthumb 4.89175 51.7097
rfemur -27.0487 -3.41956 11.3396
rtibia 57.6752
rfoot -7.85701 -0.0367609
rtoes -8.57844
lfemur 8.09562 1.70876 -30.8503
ltibia 14.0964
lfoot -1.1217 -19.0926
ltoes 4.1664
130
root -10.8118 18.0185 -0.348308 176.388 1.74153 173.519
lowerback 12.0743 -4.80099 -7.50416
upperback 1.69392 -6.95583 3.28342
thorax -3.62016 -3.26641 8.68188
lowerneck 7.97869 -23.9426 -16.2957
upperneck 33.1835 -33.8482 13.4119
head 16.1548 -14.7237 3.20566
rclavicle 9.18385e-014 -3.18055e-014
rhumerus -30.3588 -18.909 -72.8233
rradius 27.9049
rwrist 6.6695
rhand -16.212 6.7936
rfingers 7.12502
rthumb 9.99564 -22.949
lclavicle 9.18385e-014 -3.18055e-014
lhumerus -28.6061 0.537035 84.4352
lradius 43.548
lwrist -1.65026
lhand -21.3205 21.7169
lfingers 7.12502
lthumb 5.06492 51.6363
rfemur -26.5176 -3.63236 11.296
rtibia 59.7707
rfoot -7.57268 0.545854
rtoes -9.0506
lfemur 7.83514 1.62569 -30.7414
ltibia 14.1352
lfoot -0.914301 -19.7945
ltoes 3.43986
131
root -10.8234 18.0318 -0.240963 176.328 1.56089 173.65
lowerback 11.9785 -4.81939 -7.4396
upperback 1.60907 -6.97986 3.23647
thorax -3.66763 -3.27756 8.59278
lowerneck 8.0687 -23.9783 -16.3887
upperneck 33.2252 -33.9346 13.526
head 16.2342 -14.7488 3.2467
rclavicle -3.37934e-015 6.99722e-014
rhumerus -30.408 -18.4821 -73.2539
rradius 28.5076
rwrist 6.06506
rhand -16.1264 6.67548
rfingers 7.12502
rthumb 10.0782 -23.0632
lclavicle -3.37934e-015 6.99722e-014
lhumerus -29.076 0.755805 84.5736
lradius 43.0039
lwrist -2.22973
lhand -21.0814 21.8713
lfingers 7.12502
lthumb 5.29576 51.7852
rfemur -25.9944 -3.83675 11.4113
rtibia 61.692
rfoot -7.02973 1.07749
rtoes -10.0706
lfemur 7.54368 1.58604 -30.4901
ltibia 14.1046
lfoot -0.383932 -20.4035
ltoes 3.57498
132
root -10.8329 18.0507 -0.137361 176.244 1.38431 173.929
lowerback 11.8792 -4.81948 -7.24432
upperback 1.57173 -6.95108 3.25774
thorax -3.67963 -3.26477 8.49394
lowerneck 7.95221 -24.0858 -16.3407
upperneck 33.3066 -34.0688 13.4132
head 16.285 -14.7895 3.15226
rclavicle -4.9895e-014 -5.24792e-014
rhumerus -30.3565 -18.2398 -73.5883
rradius 28.9335
rwrist 5.57031
rhand -16.0471 6.69282
rfingers 7.12502
rthumb 10.1547 -23.0421
lclavicle -4.9895e-014 -5.24792e-014
lhumerus -29.6226 0.902376 84.7981
lradius 42.5516
lwrist -2.79973
lhand -21.2173 21.6153
lfingers 7.12502
lthumb 5.1645 51.5323
rfemur -25.3518 -4.05582 11.7183
rtibia 63.4056
rfoot -6.31807 1.49215
rtoes -10.7322
lfemur 7.29463 1.43299 -30.0884
ltibia 14.0956
lfoot 0.289663 -20.8928
ltoes 4.76171
133
root -10.8391 18.0735 -0.0388001 176.176 1.12058 173.886
lowerback 11.7746 -4.80152 -7.36653
upperback 1.46219 -6.95699 3.17442
thorax -3.73391 -3.26539 8.47016
lowerneck 7.95619 -24.178 -16.191
upperneck 33.3458 -34.1403 13.2185
head 16.2267 -14.8112 3.05477
rclavicle -8.05078e-014 0
rhumerus -30.5397 -17.9184 -73.922
rradius 29.5188
rwrist 5.14432
rhand -16.0001 6.94854
rfingers 7.12502
rthumb 10.2 -22.7842
lclavicle -8.05078e-014 0
lhumerus -30.1972 0.860506 85.057
lradius 41.9143
lwrist -3.2066
lhand -21.1262 21.6755
lfingers 7.12502
lthumb 5.25249 51.5904
rfemur -24.6278 -4.35627 11.6493
rtibia 64.9554
rfoot -5.73904 1.9829
rtoes -9.3447
lfemur 6.96185 1.45732 -30.0102
ltibia 14.1417
lfoot 0.928641 -21.5597
ltoes 5.2181
134
root -10.8452 18.0913 0.0596565 176.109 0.925236 174.004
lowerback 11.6278 -4.7967 -7.35594
upperback 1.38497 -6.95202 3.15284
thorax -3.74059 -3.26412 8.42938
lowerneck 7.9547 -24.2127 -16.26
upperneck 33.5305 -34.1601 13.0915
head 16.309 -14.8106 3.00892
rclavicle 4.39314e-014 2.54444e-014
rhumerus -30.7146 -17.3324 -74.3325
rradius 30.2059
rwrist 4.58241
rhand -16.0191 7.04114
rfingers 7.12502
rthumb 10.1817 -22.6925
lclavicle 4.39314e-014 2.54444e-014
lhumerus -30.5983 0.90896 85.2946
lradius 41.149
lwrist -3.49078
lhand -20.3072 22.0985
lfingers 7.12502
lthumb 6.04323 51.9923
rfemur -23.7662 -4.50084 11.7811
rtibia 66.2534
rfoot -5.36044 2.55868
rtoes -8.61237
lfemur 6.60351 1.63887 -29.7571
ltibia 14.2204
lfoot 1.17213 -22.2644
ltoes 4.46796
135
root -10.8537 18.1024 0.159692 176.088 0.753218 174.213
lowerback 11.4311 -4.77884 -7.17658
upperback 1.32328 -6.90396 3.12506
thorax -3.73248 -3.24439 8.27574
lowerneck 7.87567 -24.2943 -16.2609
upperneck 33.6753 -34.2631 13.0104
head 16.4009 -14.8323 2.94362
rclavicle 5.26779e-014 3.33958e-014
rhumerus -30.7459 -16.9876 -74.6968
rradius 30.6633
rwrist 4.17434
rhand -16.127 6.8916
rfingers 7.12502
rthumb 10.0777 -22.8471
lclavicle 5.26779e-014 3.33958e-014
lhumerus -31.0198 0.867063 85.4784
lradius 40.464
lwrist -3.77399
lhand -19.711 22.2386
lfingers 7.12502
lthumb 6.61877 52.1151
rfemur -22.8789 -4.72249 12.0383
rtibia 67.3034
rfoot -4.59396 3.23601
rtoes -9.85372
lfemur 6.24174 1.66349 -29.4602
ltibia 14.2757
lfoot 1.57499 -22.6569
ltoes 4.63295
136
root -10.862 18.1166 0.260888 176.138 0.556513 174.411
lowerback 11.2111 -4.74551 -6.95953
upperback 1.23981 -6.83449 3.06598
thorax -3.74666 -3.21375 8.06466
lowerneck 7.87936 -24.3903 -16.1688
upperneck 33.6352 -34.4094 13.0595
head 16.4025 -14.8722 2.92157
rclavicle -1.52865e-013 -1.90833e-014
rhumerus -30.7162 -16.8396 -75.0616
rradius 30.9987
rwrist 3.96964
rhand -16.0856 6.67965
rfingers 7.12502
rthumb 10.1176 -23.0571
lclavicle -1.52865e-013 -1.90833e-014
lhumerus -31.4497 0.632144 85.634
lradius 39.9299
lwrist -3.86269
lhand -19.5072 22.5633
lfingers 7.12502
lthumb 6.81553 52.4336
rfemur -21.978 -5.00604 12.3084
rtibia 68.1535
rfoot -3.31245 3.8374
rtoes -9.52117
lfemur 5.78577 1.62782 -29.209
ltibia 14.3689
lfoot 2.05914 -22.92
ltoes 4.6396
137
root -10.8681 18.1374 0.355006 176.17 0.403531 174.539
lowerback 10.9137 -4.69724 -6.85572
upperback 1.15858 -6.75588 3.01691
thorax -3.70176 -3.18118 7.91855
lowerneck 7.94857 -24.4309 -16.2319
upperneck 33.6347 -34.4761 13.1001
head 16.43 -14.8952 2.93485
rclavicle 4.57205e-014 -7.95139e-015
rhumerus -30.6534 -16.7773 -75.3163
rradius 31.0971
rwrist 3.98432
rhand -15.9726 7.19304
rfingers 7.12502
rthumb 10.2266 -22.5384
lclavicle 4.57205e-014 -7.95139e-015
lhumerus -31.8524 0.627634 85.7612
lradius 39.3893
lwrist -3.93483
lhand -19.1507 22.8564
lfingers 7.12502
lthumb 7.15969 52.7153
rfemur -20.9523 -5.09355 12.5259
rtibia 68.7962
rfoot -2.31073 4.51642
rtoes -8.6796
lfemur 5.36961 1.66822 -29.0124
ltibia 14.4477
lfoot 2.64704 -23.2423
ltoes 5.44188
138
root -10.8773 18.1584 0.44546 176.162 0.311726 174.664
lowerback 10.6151 -4.63238 -6.75979
upperback 1.08712 -6.65382 2.98756
thorax -3.64579 -3.13705 7.79544
lowerneck 7.95293 -24.4642 -16.2002
upperneck 33.6605 -34.4791 12.9609
head 16.393 -14.896 2.88351
rclavicle -2.38542e-015 1.90833e-014
rhumerus -30.6705 -16.3119 -75.6137
rradius 31.3549
rwrist 3.67608
rhand -15.9528 7.61781
rfingers 7.12502
rthumb 10.2457 -22.1127
lclavicle -2.38542e-015 1.90833e-014
lhumerus -32.2786 0.853561 85.8784
lradius 38.7959
lwrist -4.25071
lhand -18.8503 22.8085
lfingers 7.12502
lthumb 7.44961 52.6573
rfemur -19.8455 -5.13966 12.7479
rtibia 69.2339
rfoot -1.41436 5.50409
rtoes -8.93659
lfemur 5.04308 1.6432 -28.8707
ltibia 14.4536
lfoot 3.03885 -23.314
ltoes 5.61226
139
root -10.8869 18.1757 0.537437 176.139 0.218262 174.84
lowerback 10.4146 -4.5557 -6.57936
upperback 0.99821 -6.53115 2.96171
thorax -3.67457 -3.07809 7.63935
lowerneck 7.95166 -24.4953 -16.2489
upperneck 33.6975 -34.5006 12.8796
head 16.404 -14.904 2.85269
rclavicle 5.40694e-014 -6.36111e-015
rhumerus -30.8105 -15.765 -75.9467
rradius 31.7582
rwrist 3.22994
rhand -15.9901 7.4565
rfingers 7.12502
rthumb 10.2097 -22.2757
lclavicle 5.40694e-014 -6.36111e-015
lhumerus -32.803 1.14603 85.956
lradius 38.2628
lwrist -4.70674
lhand -18.5613 23.0478
lfingers 7.12502
lthumb 7.7286 52.8865
rfemur -18.6269 -5.24952 13.05
rtibia 69.4441
rfoot -0.0815992 6.74195
rtoes -8.73981
lfemur 4.76467 1.68227 -28.6963
ltibia 14.3688
lfoot 3.26403 -23.3537
ltoes 4.87452
140
root -10.8949 18.192 0.63095 176.161 0.115456 175.084
lowerback 10.146 -4.45632 -6.29554
upperback 0.942026 -6.36278 2.91046
thorax -3.65205 -3.00113 7.38463
lowerneck 7.99915 -24.5925 -16.2062
upperneck 33.6807 -34.627 12.8551
head 16.3945 -14.949 2.81699
rclavicle 8.94531e-016 -9.54166e-014
rhumerus -30.8981 -15.4991 -76.2919
rradius 32.0598
rwrist 2.91052
rhand -16.0701 7.32355
rfingers 7.12502
rthumb 10.1325 -22.4125
lclavicle 8.94531e-016 -9.54166e-014
lhumerus -33.1696 1.38244 85.9415
lradius 37.6583
lwrist -5.26816
lhand -18.2019 23.2694
lfingers 7.12502
lthumb 8.07548 53.0951
rfemur -17.3701 -5.27974 13.451
rtibia 69.445
rfoot 1.39805 8.21412
rtoes -7.98266
lfemur 4.41723 1.71996 -28.4553
ltibia 14.317
lfoot 3.81949 -23.3229
ltoes 5.48065
141
root -10.9014 18.2062 0.727075 176.213 0.024249 175.219
lowerback 9.89995 -4.34706 -6.14581
upperback 0.850527 -6.20407 2.828
thorax -3.66464 -2.92601 7.17867
lowerneck 8.09664 -24.6717 -16.0973
upperneck 33.6075 -34.7175 12.8298
head 16.3209 -14.9809 2.79447
rclavicle 7.36497e-014 -1.90833e-014
rhumerus -30.9415 -15.2589 -76.649
rradius 32.1958
rwrist 2.97155
rhand -16.341 7.56273
rfingers 7.12502
rthumb 9.87115 -22.1859
lclavicle 7.36497e-014 -1.90833e-014
lhumerus -33.5953 1.69738 85.847
lradius 37.0635
lwrist -5.86211
lhand -18.893 22.3414
lfingers 7.12502
lthumb 7.40842 52.1917
rfemur -16.1472 -5.21149 13.7675
rtibia 69.2531
rfoot 2.71133 9.95397
rtoes -7.62573
lfemur 3.98558 1.85895 -28.3168
ltibia 14.3835
lfoot 4.2997 -23.3535
ltoes 6.38128
142
root -10.9064 18.2177 0.82601 176.306 -0.100849 175.376
lowerback 9.74682 -4.2311 -6.03095
upperback 0.678193 -6.0461 2.80062
thorax -3.80261 -2.84317 7.06627
lowerneck 8.24393 -24.7301 -16.0078
upperneck 33.4999 -34.766 12.7978
head 16.2129 -15.0023 2.7893
rclavicle -1.43125e-014 2.06736e-014
rhumerus -31.0474 -15.0908 -76.8751
rradius 32.3278
rwrist 3.24946
rhand -16.3234 8.03571
rfingers 7.12502
rthumb 9.88816 -21.7121
lclavicle -1.43125e-014 2.06736e-014
lhumerus -34.1447 2.08346 85.8075
lradius 36.6391
lwrist -5.94186
lhand -19.8797 21.7711
lfingers 7.12502
lthumb 6.45597 51.6527
rfemur -14.9293 -5.08725 14.1826
rtibia 68.8358
rfoot 4.16029 11.8897
rtoes -7.64003
lfemur 3.44474 2.04451 -28.1404
ltibia 14.5581
lfoot 4.5898 -23.4764
ltoes 7.07105
143
root -10.914 18.224 0.922889 176.455 -0.265791 175.375
lowerback 9.46681 -4.00262 -6.01788
upperback 0.498612 -5.96552 2.75721
thorax -3.86541 -2.88916 6.99755
lowerneck 8.27802 -24.7699 -15.9591
upperneck 33.5192 -34.7597 12.6211
head 16.1497 -15.0022 2.73125
rclavicle -5.45167e-014 -1.74931e-014
rhumerus -31.0956 -14.7963 -77.0493
rradius 32.4995
rwrist 3.25062
rhand -15.9043 8.41809
rfingers 7.12502
rthumb 10.2925 -21.3101
lclavicle -5.45167e-014 -1.74931e-014
lhumerus -34.7011 2.7433 85.6784
lradius 36.4197
lwrist -5.76151
lhand -18.817 22.9003
lfingers 7.12502
lthumb 7.48183 52.748
rfemur -13.6658 -4.92128 14.4486
rtibia 68.2039
rfoot 5.54491 13.849
rtoes -8.50782
lfemur 2.74434 2.12737 -28.169
ltibia 14.9302
lfoot 5.0322 -23.5182
ltoes 8.43844
